James Cotton and His Big Band [Live]

Live From Chicago! - Mr. Superharp Himself!

[LOSSLESS] - EAC - covers - cue - wv

Label: Alligator Records

Covers: 600 dpi

Recorded at Biddy Milligan"s, Chicago, Illinois from February 1-3, 1986.Digitally remastered by Tom Coyne (Frankford/Wayne, New York, New York).

Tracks: 

1. Here I Am (Knocking At Your Door) 

2. Part Time Love 

3. Just To Be With You 

4. Hard Headed 

5. When It Rains It Pours 

6. Cross Your Heart 

7. Come Back, Baby 

8. Born In Chicago 

9. The Midnight Creeper

Personnel: 

James Cotton (vocals, harmonica) 

Michael Coleman (guitar)

Douglas Fagen (tenor saxophone) 

Danny "Boney" Fields (trumpet)

Johnny Cotton (trombone) 

Eddie Harsch (piano) 

Noel Neal (bass) 

Ray "Killer" Allison (drums)

Exact Audio Copy V0.99 prebeta 3 from 28. July 2007

EAC extraction logfile from 8. October 2007, 16:10

James Cotton / Live From Chicago--Mr. Superharp Himself

Used drive  : ATAPI-CDROM-DRIVE-52MAX   Adapter: 1  ID: 1

Read mode               : Secure
Utilize accurate stream : Yes
Defeat audio cache      : Yes
Make use of C2 pointers : No

Combined read/write offset correction       : 0
Overread into Lead-In and Lead-Out          : No
Fill up missing offset samples with silence : Yes
Delete leading and trailing silent blocks   : No
Null samples used in CRC calculations       : No
Used interface                              : Installed external ASPI interface

Used output format              : User Defined Encoder
Selected bitrate                : 128 kBit/s
Quality                         : High
Add ID3 tag                     : Yes
Command line compressor         : C:ProgrammiExact Audio Copywavpack.exe
Additional command line options : -h -m -w "Artist=%a" -w "Title=%t" -w "Album=%g" -w "Year=%y" -w "Track=%n" -w "Genre=%m" %s %d 


TOC of the extracted CD

     Track |   Start  |  Length  | Start sector | End sector 
    ---------------------------------------------------------
        1  |  0:00.00 |  5:00.72 |         0    |    22571   
        2  |  5:00.72 |  4:59.25 |     22572    |    45021   
        3  | 10:00.22 |  6:02.50 |     45022    |    72221   
        4  | 16:02.72 |  4:32.43 |     72222    |    92664   
        5  | 20:35.40 |  3:50.57 |     92665    |   109971   
        6  | 24:26.22 |  4:21.50 |    109972    |   129596   
        7  | 28:47.72 |  4:18.13 |    129597    |   148959   
        8  | 33:06.10 |  3:06.62 |    148960    |   162971   
        9  | 36:12.72 |  3:41.45 |    162972    |   179591   


Range status and errors

Selected range

     Filename C:Documents and Settings┬ºDocumentiJames Cotton - Live From Chicago--Mr. Superharp Himself.wav

     Peak level 100.0 %
     Range quality 100.0 %
     Copy CRC 9D69EA6A
     Copy OK

No errors occurred

End of status report